<?xml version="1.0" encoding="UTF-8" standalone="no"?>
<!DOCTYPE svg PUBLIC "-//W3C//DTD SVG 1.1//EN"
 "http://www.w3.org/Graphics/SVG/1.1/DTD/svg11.dtd">
<!-- Generated by graphviz version 2.43.0 (0)
 -->
<!-- Title: %3 Pages: 1 -->
<svg width="516pt" height="160pt"
 viewBox="0.00 0.00 515.75 159.97" xmlns="http://www.w3.org/2000/svg" xmlns:xlink="http://www.w3.org/1999/xlink">
<g id="graph0" class="graph" transform="scale(1 1) rotate(0) translate(4 155.97)">
<title>%3</title>
<polygon fill="white" stroke="transparent" points="-4,4 -4,-155.97 511.75,-155.97 511.75,4 -4,4"/>
<!-- &#45;1 -->
<g id="node1" class="node">
<title>&#45;1</title>
<polygon fill="lightgray" stroke="black" points="26,-131.97 0,-131.97 0,-113.97 26,-113.97 26,-131.97"/>
<text text-anchor="middle" x="13" y="-120.77" font-family="Times,serif" font-size="9.00">&#45;1</text>
</g>
<!-- &#45;2 -->
<g id="node2" class="node">
<title>&#45;2</title>
<polygon fill="lightgray" stroke="black" points="70,-131.97 44,-131.97 44,-113.97 70,-113.97 70,-131.97"/>
<text text-anchor="middle" x="57" y="-120.77" font-family="Times,serif" font-size="9.00">&#45;2</text>
</g>
<!-- &#45;3 -->
<g id="node3" class="node">
<title>&#45;3</title>
<polygon fill="lightgray" stroke="black" points="114,-131.97 88,-131.97 88,-113.97 114,-113.97 114,-131.97"/>
<text text-anchor="middle" x="101" y="-120.77" font-family="Times,serif" font-size="9.00">&#45;3</text>
</g>
<!-- &#45;4 -->
<g id="node4" class="node">
<title>&#45;4</title>
<polygon fill="lightgray" stroke="black" points="158,-131.97 132,-131.97 132,-113.97 158,-113.97 158,-131.97"/>
<text text-anchor="middle" x="145" y="-120.77" font-family="Times,serif" font-size="9.00">&#45;4</text>
</g>
<!-- 0 -->
<g id="node6" class="node">
<title>0</title>
<ellipse fill="lightblue" stroke="black" cx="145" cy="-28.99" rx="16.03" ry="16.03"/>
<text text-anchor="middle" x="145" y="-26.79" font-family="Times,serif" font-size="9.00">0</text>
</g>
<!-- &#45;4&#45;&gt;0 -->
<g id="edge1" class="edge">
<title>&#45;4&#45;&gt;0</title>
<path fill="none" stroke="green" stroke-width="3.07" d="M145,-113.81C145,-100.9 145,-75.23 145,-55.68"/>
<polygon fill="green" stroke="green" stroke-width="3.07" points="148.5,-55.57 145,-45.57 141.5,-55.57 148.5,-55.57"/>
</g>
<!-- &#45;5 -->
<g id="node5" class="node">
<title>&#45;5</title>
<polygon fill="lightgray" stroke="black" points="212,-131.97 186,-131.97 186,-113.97 212,-113.97 212,-131.97"/>
<text text-anchor="middle" x="199" y="-120.77" font-family="Times,serif" font-size="9.00">&#45;5</text>
</g>
<!-- &#45;5&#45;&gt;0 -->
<g id="edge2" class="edge">
<title>&#45;5&#45;&gt;0</title>
<path fill="none" stroke="red" stroke-width="0.53" stroke-dasharray="1,5" d="M194.21,-113.81C186.19,-100.15 169.77,-72.19 158.11,-52.32"/>
<polygon fill="red" stroke="red" stroke-width="0.53" points="161.06,-50.43 152.98,-43.58 155.02,-53.98 161.06,-50.43"/>
</g>
<!-- 1794 -->
<g id="node7" class="node">
<title>1794</title>
<ellipse fill="white" stroke="black" cx="208" cy="-28.99" rx="28.98" ry="28.98"/>
<text text-anchor="middle" x="208" y="-26.79" font-family="Times,serif" font-size="9.00">1794</text>
</g>
<!-- &#45;5&#45;&gt;1794 -->
<g id="edge3" class="edge">
<title>&#45;5&#45;&gt;1794</title>
<path fill="none" stroke="green" stroke-width="0.37" d="M199.8,-113.81C200.8,-103.54 202.6,-85.2 204.25,-68.29"/>
<polygon fill="green" stroke="green" stroke-width="0.37" points="207.77,-68.33 205.26,-58.03 200.8,-67.64 207.77,-68.33"/>
</g>
<!-- 1190 -->
<g id="node8" class="node">
<title>1190</title>
<ellipse fill="white" stroke="black" cx="259" cy="-122.97" rx="28.98" ry="28.98"/>
<text text-anchor="middle" x="259" y="-120.77" font-family="Times,serif" font-size="9.00">1190</text>
</g>
<!-- 1319 -->
<g id="node9" class="node">
<title>1319</title>
<ellipse fill="white" stroke="black" cx="335" cy="-122.97" rx="28.98" ry="28.98"/>
<text text-anchor="middle" x="335" y="-120.77" font-family="Times,serif" font-size="9.00">1319</text>
</g>
<!-- 1127 -->
<g id="node10" class="node">
<title>1127</title>
<ellipse fill="white" stroke="black" cx="411" cy="-122.97" rx="28.98" ry="28.98"/>
<text text-anchor="middle" x="411" y="-120.77" font-family="Times,serif" font-size="9.00">1127</text>
</g>
<!-- 999 -->
<g id="node11" class="node">
<title>999</title>
<ellipse fill="white" stroke="black" cx="483" cy="-122.97" rx="25" ry="25"/>
<text text-anchor="middle" x="483" y="-120.77" font-family="Times,serif" font-size="9.00">999</text>
</g>
</g>
</svg>
